<?xml version="1.0" encoding="UTF-8" standalone="no"?>
<!DOCTYPE svg PUBLIC "-//W3C//DTD SVG 1.1//EN" "http://www.w3.org/Graphics/SVG/1.1/DTD/svg11.dtd">
<svg version="1.1" xmlns="http://www.w3.org/2000/svg" xmlns:xlink="http://www.w3.org/1999/xlink" preserveAspectRatio="xMidYMid meet" viewBox="206.4606326153307 290.82969755234217 198.30543896546928 168.3980967914228" width="194.31" height="164.4" fill="f4f4f4"><defs><path d="M283.43 344.58C291.85 344.58 298.68 337.76 298.68 329.34C298.68 321.84 298.69 306.59 298.69 297.09C298.69 294.2 296.34 291.85 293.44 291.85C276.25 291.84 232.2 291.83 215.57 291.83C211.09 291.83 207.46 295.46 207.46 299.94C207.46 308.87 207.46 320.76 207.46 328C207.46 337.15 214.88 344.56 224.02 344.57C238.96 344.57 268.24 344.58 283.43 344.58Z" id="dNaWQYVS"></path><path d="M368.69 456.23C375.53 456.23 381.08 450.68 381.08 443.84C381.08 437.75 381.08 425.36 381.08 417.64C381.08 415.29 379.18 413.38 376.82 413.38C363.17 413.38 328.32 413.37 315.13 413.37C311.49 413.37 308.54 416.32 308.54 419.96C308.54 427.21 308.54 436.88 308.54 442.76C308.54 450.19 314.56 456.22 322 456.22C333.81 456.22 356.66 456.23 368.69 456.23Z" id="dfYTs2lta"></path><path d="M240.54 456.23C233.7 456.23 228.15 450.68 228.15 443.84C228.15 437.75 228.15 425.36 228.14 417.64C228.14 415.29 230.05 413.38 232.41 413.38C246.06 413.38 280.91 413.37 294.1 413.37C297.74 413.37 300.69 416.32 300.69 419.96C300.69 427.21 300.69 436.88 300.69 442.76C300.69 450.19 294.66 456.22 287.23 456.22C275.41 456.22 252.57 456.23 240.54 456.23Z" id="bf0XJsHKM"></path><path d="M325.79 344.58C317.37 344.58 310.55 337.76 310.55 329.34C310.54 321.84 310.54 306.59 310.54 297.09C310.54 294.2 312.89 291.85 315.78 291.85C332.98 291.84 377.03 291.83 393.65 291.83C398.13 291.83 401.77 295.46 401.77 299.94C401.77 308.87 401.77 320.76 401.77 328C401.77 337.15 394.35 344.56 385.2 344.57C370.27 344.57 340.99 344.58 325.79 344.58Z" id="as7U8DRfX"></path><path d="M378.21 403.36C385.75 403.36 391.87 397.25 391.87 389.71C391.87 382.99 391.87 369.33 391.87 360.82C391.88 358.22 389.77 356.12 387.18 356.12C371.85 356.12 332.62 356.11 317.81 356.1C313.79 356.1 310.54 359.36 310.54 363.37C310.54 371.37 310.54 382.02 310.54 388.51C310.54 396.7 317.18 403.35 325.38 403.35C338.68 403.35 364.67 403.36 378.21 403.36Z" id="af3XJk5fd"></path><path d="M285.02 403.36C292.56 403.36 298.68 397.25 298.68 389.71C298.68 382.99 298.69 369.33 298.69 360.82C298.69 358.22 296.58 356.12 293.99 356.12C278.66 356.12 239.43 356.11 224.62 356.1C220.61 356.1 217.35 359.36 217.35 363.37C217.35 371.37 217.35 382.02 217.35 388.51C217.35 396.7 224 403.35 232.19 403.35C245.49 403.35 271.49 403.36 285.02 403.36Z" id="c9SoS1nPfm"></path></defs><g><g><use xlink:href="#dNaWQYVS" opacity="1" fill="#f4f4f4" fill-opacity="1"></use></g><g><use xlink:href="#dfYTs2lta" opacity="1" fill="#f4f4f4" fill-opacity="1"></use></g><g><use xlink:href="#bf0XJsHKM" opacity="1" fill="#f4f4f4" fill-opacity="1"></use></g><g><use xlink:href="#as7U8DRfX" opacity="1" fill="#f4f4f4" fill-opacity="1"></use></g><g><use xlink:href="#af3XJk5fd" opacity="1" fill="#f4f4f4" fill-opacity="1"></use></g><g><use xlink:href="#c9SoS1nPfm" opacity="1" fill="#f4f4f4" fill-opacity="1"></use></g></g></svg>