<svg xmlns="http://www.w3.org/2000/svg" xmlns:xlink="http://www.w3.org/1999/xlink" version="1.1" x="0px" y="0px" viewBox="0 0 60 60" enable-background="new 0 0 60 60" xml:space="preserve"><g fill="#f4f4f4"><path d="M53.9897003,26.8801155c0,4.3598633-2.8099976,8.119873-6.9199829,9.3598633   c-0.7900391,2.7900391-4.6799927,14.2600098-15.460022,14.3500977h-0.0100098c-0.039978,0-0.0899658,0-0.1300049-0.0100098   c-0.0599976-0.0100098-5.3099976-0.7099609-8.0899658-0.4499512l-3.3400269,0.4499512   c-0.1699829,0.0200195-0.3299561,0.0100098-0.4899902-0.0500488c-0.4500122-0.1699219-11.2000113-4.369873-13.4299927-24.5499268   c-0.0200195-0.1199951-1.710022-13.7800283,8.9400024-16.3599854c1.9699697-0.4799805,3.9299917-0.130127,5.3699942,0.9699707   c1.3200073,1.0300293,2.7200317,2.9699707,1.9299927,6.4099112c-0.0599976,0.4300537-0.3999634,2.3500977-2.0299683,3.4700928   c-1.0400391,0.7199707-2.3500366,0.9599609-3.9000244,0.7099609c-0.0200195,1.1199951,0.3499756,3.3000488,2.8200073,6.1500244   c0.2999878,0.3300781,2.2700195,2.5300293,3.5899658,4.8900146c1.4900513-3.6600342,5.0800171-6.5999756,11.6600342-6.4000244   c0.5299683-4.8900146,4.6900024-8.7099609,9.7199707-8.7099609C49.6096954,17.110096,53.9897003,21.4899788,53.9897003,26.8801155z   "/></g></svg>