<svg xmlns="http://www.w3.org/2000/svg" viewBox="0 0 512 640" x="0px" y="0px"><g><path style="fill: #f4f4f4;" d="M259.58,279.79a4,4,0,0,0-7.16,0,112.18,112.18,0,0,1-64.48,56.82,184.78,184.78,0,0,1-74.7,9.23A108,108,0,0,1,15.4,256.07c-7.49-44.49-1-91.94,23.2-137.31A156.14,156.14,0,0,0,57,45.6,16.07,16.07,0,0,1,73,29.47h366.1a16.07,16.07,0,0,1,16,16.13c0,27.55,7,52,19.48,75.27a213.31,213.31,0,0,1,22.07,135.2,108,108,0,0,1-97.84,89.77C341.78,350.46,285,331.62,259.58,279.79ZM446.63,366.6c-51.83,23.47-133.91,11-178.86-24.68a4,4,0,0,0-6.44,3.62l14.75,122.89A16,16,0,0,0,292,482.53H459a16,16,0,0,0,16-15.43l4.06-112.68a4,4,0,0,0-6.41-3.33A137.18,137.18,0,0,1,446.63,366.6Zm-340.4,10.92a131.5,131.5,0,0,1-66.91-26.43,4,4,0,0,0-6.41,3.33L37,467.1a16,16,0,0,0,16,15.43H220a16,16,0,0,0,15.89-14.1l14.75-122.89a4,4,0,0,0-6.44-3.62C207.3,371.2,152.37,382,106.23,377.52Z"/></g></svg>