<svg xmlns="http://www.w3.org/2000/svg" xmlns:xlink="http://www.w3.org/1999/xlink" version="1.1" x="0px" y="0px" viewBox="0 0 96 120" enable-background="new 0 0 96 96" xml:space="preserve"><path fill="#f4f4f4" d="M36,96H26c-1.828,0-3.252-0.752-3.912-2.048c-0.66-1.296-0.416-2.888,0.668-4.36l1.144-1.556  c0.068-0.181,0.236-0.845,0.436-1.572c0.472-1.672,0.836-2.907,1.34-3.752c-0.22-1.912-0.76-4.292-1.376-7  c-1.148-5.052-2.576-11.328-2.576-17.776c0-3.916,1.176-6.244,2.216-8.3c1.016-2.012,1.976-3.912,1.976-7.556  c0-6.084-0.744-10.176-1.6-14.916C23.236,21.18,22,14.4,22,2c0-1.104,0.9-2,2-2h20.084c1.104,0,2,0.896,2,2v18  c0,6.476-1.104,9.964-2.176,13.332C42.976,36.284,42.084,39.08,42.084,44v12c0,2.344-1.156,11.084-3.636,27.46  c0.312,0.776,0.54,1.912,0.856,3.688c0.128,0.728,0.232,1.367,0.332,1.672L40,89.523c0.784,1.576,0.784,3.205,0,4.477  C39.22,95.271,37.76,96,36,96z"/><path fill="#f4f4f4" d="M70,96H60c-1.752,0-3.216-0.729-4-2c-0.779-1.264-0.779-2.9,0-4.473l0.42-0.844c0.048-0.176,0.164-0.815,0.301-1.539  c0.344-1.776,0.588-2.912,0.911-3.685C56.96,79.032,54.08,59.611,54.08,56V44c0-4.916-0.889-7.708-1.824-10.668  C51.188,29.96,50.084,26.476,50.084,20V2c0-1.104,0.896-2,2-2H72c1.1,0,2,0.896,2,2c0,12.4-1.236,19.184-2.32,25.168  c-0.859,4.74-1.596,8.832-1.596,14.916c0,3.648,0.96,5.544,1.977,7.557c1.035,2.055,2.215,4.383,2.215,8.295  c0,6.444-1.42,12.721-2.571,17.765c-0.616,2.716-1.16,5.1-1.384,7.008c0.5,0.853,0.867,2.084,1.344,3.752  c0.204,0.724,0.368,1.396,0.531,1.716l1.049,1.404c1.084,1.484,1.328,3.076,0.668,4.372C73.256,95.252,71.836,96,70,96L70,96z"/></svg>