<svg xmlns="http://www.w3.org/2000/svg" xmlns:xlink="http://www.w3.org/1999/xlink" version="1.1" x="0px" y="0px" viewBox="0 0 50 50" enable-background="new 0 0 50 50" xml:space="preserve"><g fill="#f4f4f4"><path d="M37.7966766,20.6076736c-0.1200981,1.2299995-0.490097,2.3899994-1.1099968,3.4599991l-9.170002,15.9099998   c-0.4447994,0.7684021-0.1949997,1.7260017,0.4799004,2.1899986c2.0639,1.2989006,3.0452003,2.5953026,5.2401009,2.7800026   c1.168499,0.1063004,1.9993973,1.145401,1.829998,2.3099976c-0.3757973,2.6298027-3.9020996,1.4567032-5.9799995,1.7200012   c-3.2244987,0-3.5702-1.3577003-6.0599995-1.5400009c-1.5275002-0.3036995-4.3125,0.4162025-5.3899994-2.0200005   c-0.4800014-1.0499992-0.330101-2.2700996,0.3799992-3.1699982l0.3199997-0.4199982   c1.8299999-2.3400002,2.8199997-5.2400017,2.7900009-8.1701012l-0.0100994-0.1297989   c-0.3100014-7.3802013,2.2000999-10.8702011,3.910099-12.3702011L12.6566782,13.997673   c-0.25-0.1499996-0.4300003-0.4099998-0.4800997-0.6998997c-0.0499001-0.2901001,0.0300999-0.5901003,0.2200994-0.8201008   l9.5099993-11.1499996c0.339901-0.39,0.9200001-0.46,1.339901-0.1600001c6.7201004,4.77,11.1701012,10.79,13.2201004,13.9499998   C37.5166779,16.7276726,37.9866791,18.6776733,37.7966766,20.6076736z"/></g></svg>