<svg xmlns="http://www.w3.org/2000/svg" xmlns:xlink="http://www.w3.org/1999/xlink" version="1.1" x="0px" y="0px" viewBox="0 0 100 100" enable-background="new 0 0 100 100" xml:space="preserve"><g><path fill="#000000" d="M1355.15,100.38c0-5.709-4.645-10.354-10.354-10.354s-10.354,4.645-10.354,10.354   c0,5.71,4.645,10.355,10.354,10.355S1355.15,106.09,1355.15,100.38z M1344.797,109.535c-5.049,0-9.154-4.106-9.154-9.155   c0-5.047,4.105-9.153,9.154-9.153c5.047,0,9.152,4.106,9.152,9.153C1353.949,105.429,1349.844,109.535,1344.797,109.535z"/><path fill="#000000" d="M1423.516,129.803c-0.004-0.005-0.01-0.013-0.014-0.019c-0.002-0.003-0.002-0.005-0.002-0.008   c-8.053-12.019-18.357-22.005-30.625-29.685c0,0,0-0.001-0.002-0.001c-6.977-5.015-15.174-7.768-23.738-8.016   c0.412-10.617-0.336-21.297-2.24-31.753c-0.227-1.24-0.922-2.318-1.959-3.035c-1.037-0.716-2.287-0.984-3.531-0.761   c-1.238,0.227-2.316,0.921-3.035,1.957c-0.717,1.037-0.986,2.291-0.762,3.531c1.891,10.366,2.57,20.956,2.021,31.478   c0,0.001,0,0.001,0,0.002l-1.086,15.755l0,0c-0.896,10.488-3.023,20.882-6.316,30.893c-0.812,2.472,0.539,5.144,3.01,5.957   c0.488,0.162,0.984,0.238,1.473,0.238c1.98,0,3.832-1.262,4.484-3.245c3.262-9.909,5.447-20.194,6.512-30.575   c4.695-0.11,9.307,1.366,13.029,4.238c8.537,7.494,15.441,16.445,20.523,26.602c0.65,1.297,1.766,2.263,3.141,2.721   c0.562,0.188,1.143,0.28,1.719,0.28c0.832,0,1.66-0.193,2.426-0.576c1.297-0.648,2.264-1.764,2.723-3.14   c0.457-1.376,0.352-2.849-0.297-4.145c-3.877-7.746-8.762-14.953-14.525-21.421c-0.131-0.149-0.137-0.368-0.012-0.521   c0.143-0.173,0.398-0.198,0.566-0.057c0.002,0.001,0.002,0.001,0.004,0.003c6.754,5.529,12.629,12.02,17.457,19.286   c1.043,1.571,2.77,2.424,4.529,2.424c1.031,0,2.074-0.293,2.994-0.906C1424.475,135.649,1425.156,132.272,1423.516,129.803z    M1421.32,136.306c-1.945,1.29-4.574,0.758-5.863-1.182c-4.893-7.367-10.846-13.945-17.695-19.551c0-0.001,0-0.002-0.002-0.003   c-0.68-0.56-1.693-0.461-2.256,0.224c-0.502,0.615-0.482,1.489,0.045,2.081c5.691,6.388,10.518,13.507,14.346,21.158   c0.506,1.011,0.588,2.157,0.232,3.229c-0.357,1.072-1.109,1.94-2.121,2.446c-1.01,0.505-2.156,0.589-3.229,0.23   c-1.07-0.356-1.941-1.108-2.445-2.119c-5.156-10.302-12.16-19.379-20.818-26.979c-0.004-0.005-0.012-0.006-0.018-0.011   c-0.004-0.003-0.006-0.009-0.012-0.013c-4.086-3.159-9.17-4.76-14.346-4.496c-0.041,0.002-0.076,0.019-0.115,0.029   c-0.014,0.003-0.027,0.006-0.041,0.01c-0.064,0.021-0.121,0.052-0.174,0.093c-0.008,0.006-0.018,0.013-0.025,0.021   c-0.043,0.036-0.078,0.078-0.109,0.126c-0.016,0.022-0.029,0.044-0.043,0.068c-0.018,0.04-0.029,0.079-0.037,0.123   c-0.006,0.024-0.021,0.044-0.023,0.07c-1.035,10.477-3.227,20.858-6.516,30.855c-0.607,1.845-2.602,2.848-4.443,2.243   c-1.844-0.607-2.85-2.601-2.246-4.443c3.326-10.103,5.469-20.592,6.373-31.175c0-0.001,0-0.004,0-0.005s0.002-0.004,0.002-0.006   l1.092-15.834c0.002-0.008-0.004-0.015-0.004-0.021c0.549-10.589-0.137-21.246-2.039-31.677c-0.168-0.925,0.033-1.858,0.568-2.632   s1.338-1.292,2.264-1.459c0.924-0.175,1.857,0.032,2.633,0.565c0.771,0.536,1.291,1.34,1.459,2.265   c1.926,10.562,2.668,21.355,2.205,32.08c0,0.003,0,0.006,0,0.009s0,0.005,0,0.007c0,0.032,0.012,0.059,0.016,0.09   c0.008,0.047,0.01,0.095,0.025,0.138c0.014,0.032,0.035,0.057,0.053,0.085c0.023,0.037,0.041,0.077,0.07,0.108   c0.025,0.027,0.059,0.044,0.09,0.065c0.033,0.023,0.061,0.051,0.096,0.067s0.074,0.019,0.111,0.028   c0.037,0.009,0.072,0.025,0.113,0.027c0.006,0,0.01,0,0.016,0c8.541,0.128,16.725,2.833,23.664,7.822   c0.006,0.004,0.012,0.002,0.016,0.005c0.008,0.005,0.012,0.012,0.018,0.017c12.137,7.592,22.328,17.465,30.293,29.351   c0.002,0.001,0.002,0.004,0.002,0.005C1423.791,132.386,1423.262,135.015,1421.32,136.306z"/></g><g><path fill="#f4f4f4" d="M60.526,14.952c0-5.387-4.366-9.753-9.753-9.753c-5.387,0-9.755,4.366-9.755,9.753s4.368,9.754,9.755,9.754   C56.16,24.706,60.526,20.339,60.526,14.952L60.526,14.952z"/></g><g><path fill="#f4f4f4" d="M58.674,29.875c10.596-0.176,21.134-1.583,31.403-4.196c2.205-0.561,4.447,0.772,5.008,2.978   c0.561,2.204-0.772,4.446-2.978,5.008c-9.72,2.472-19.669,3.927-29.69,4.344v25.863c7.12,9.122,15.593,17.102,25.128,23.658   c2.198,1.511,2.754,4.518,1.243,6.715s-4.519,2.754-6.715,1.243c-11.271-7.75-21.168-17.325-29.285-28.332l-19.397,7.368   l-5.555,18.381c-0.772,2.553-3.467,3.997-6.02,3.227c-2.552-0.772-3.998-3.467-3.226-6.021l6.242-20.654   c0.433-1.434,1.507-2.585,2.908-3.117l10.943-4.157V37.988c-9.871-0.439-19.67-1.89-29.245-4.324   c-2.205-0.562-3.537-2.804-2.976-5.008c0.561-2.205,2.802-3.538,5.006-2.978c10.27,2.613,20.808,4.021,31.403,4.196h15.872"/></g></svg>